<svg xmlns="http://www.w3.org/2000/svg" width="22.712" height="17.034" viewBox="0 0 22.712 17.034">
  <g id="envelope" opacity="0.5">
    <g id="Group_2" data-name="Group 2" transform="translate(0 0)">
      <g id="Group_1" data-name="Group 1">
        <path id="Path_5" data-name="Path 5" d="M7.081,65.382c3.117,2.64,8.587,7.284,10.194,8.732a.95.95,0,0,0,1.374,0c1.609-1.45,7.079-6.094,10.2-8.734a.473.473,0,0,0,.067-.653A1.879,1.879,0,0,0,27.426,64H8.5a1.879,1.879,0,0,0-1.485.729A.473.473,0,0,0,7.081,65.382Z" transform="translate(-6.607 -64)" fill="#e9e9e9"/>
        <path id="Path_6" data-name="Path 6" d="M22.438,126.456a.471.471,0,0,0-.5.068c-3.457,2.93-7.869,6.687-9.257,7.938a1.916,1.916,0,0,1-2.641,0c-1.48-1.333-6.434-5.545-9.256-7.937a.473.473,0,0,0-.779.361v11.9a1.9,1.9,0,0,0,1.893,1.893H20.819a1.9,1.9,0,0,0,1.893-1.893v-11.9A.473.473,0,0,0,22.438,126.456Z" transform="translate(0 -123.643)" fill="#e9e9e9"/>
      </g>
    </g>
  </g>
</svg>
