<svg xmlns="http://www.w3.org/2000/svg" width="186.607" height="186.607" viewBox="0 0 186.607 186.607">
  <g id="Flat" transform="translate(-24 -24)">
    <path id="Path_14" data-name="Path 14" d="M230.956,197.737H128l7.151-38.608,5.956-32.174,6.555-35.391,5.956-32.174L160.174,24h38.608l6.555,35.391,5.956,32.174,6.555,35.391,5.956,32.174Z" transform="translate(-62.174)" fill="#020a16"/>
    <path id="Path_15" data-name="Path 15" d="M30.435,456H117.3v12.869H30.435a6.435,6.435,0,1,1,0-12.869Z" transform="translate(0 -258.263)" fill="#020a16"/>
    <path id="Path_16" data-name="Path 16" d="M256,456h86.869a6.435,6.435,0,1,1,0,12.869H256Z" transform="translate(-138.697 -258.263)" fill="#020a16"/>
    <path id="Path_17" data-name="Path 17" d="M234.434,312.174H145.78l2.381-12.869,1.194-6.435L151.736,280h76.742l2.381,12.869,1.194,6.435,1.19,6.435Z" transform="translate(-72.804 -153.044)" fill="#c9d9e5"/>
    <path id="Path_18" data-name="Path 18" d="M240.521,144.174H176.89l1.19-6.435,1.19-6.435.479-2.578.716-3.857L182.846,112h51.719l2.381,12.869.716,3.857.479,2.578,1.19,6.435Z" transform="translate(-91.402 -52.609)" fill="#c9d9e5"/>
    <path id="Path_19" data-name="Path 19" d="M0,0H13.088V6.435H0Z" transform="translate(76.89 190.723) rotate(-79.511)" fill="#ccb323"/>
    <path id="Path_20" data-name="Path 20" d="M0,0H6.544V6.435H0Z" transform="translate(80.469 171.421) rotate(-79.511)" fill="#ccb323"/>
    <path id="Path_21" data-name="Path 21" d="M0,0H9.816V6.435H0Z" transform="translate(90.016 119.949) rotate(-79.511)" fill="#dcad12"/>
    <path id="Path_22" data-name="Path 22" d="M0,0H6.544V6.435H0Z" transform="translate(92.999 103.865) rotate(-79.511)" fill="#dcad12"/>
    <path id="Path_23" data-name="Path 23" d="M0,0H9.816V6.435H0Z" transform="translate(102.547 52.393) rotate(-79.511)" fill="#dcad12"/>
    <path id="Path_24" data-name="Path 24" d="M0,0H6.544V6.435H0Z" transform="translate(105.53 36.309) rotate(-79.511)" fill="#dcad12"/>
    <g id="Group_4" data-name="Group 4" transform="translate(75.357 65.826)">
      <path id="Path_25" data-name="Path 25" d="M160,296h6.435v6.435H160Z" transform="translate(-156.662 -228.435)" fill="#d8e6ee"/>
      <path id="Path_26" data-name="Path 26" d="M160,328h6.435v6.435H160Z" transform="translate(-156.662 -247.566)" fill="#d8e6ee"/>
      <path id="Path_27" data-name="Path 27" d="M176,312h6.435v6.435H176Z" transform="translate(-166.227 -238.001)" fill="#d8e6ee"/>
      <path id="Path_28" data-name="Path 28" d="M155.038,312v6.435H151.7L152.894,312Z" transform="translate(-151.7 -238.001)" fill="#d8e6ee"/>
      <path id="Path_29" data-name="Path 29" d="M192,296h6.435v6.435H192Z" transform="translate(-175.793 -228.435)" fill="#d8e6ee"/>
      <path id="Path_30" data-name="Path 30" d="M192,328h6.435v6.435H192Z" transform="translate(-175.793 -247.566)" fill="#d8e6ee"/>
      <path id="Path_31" data-name="Path 31" d="M208,312h6.435v6.435H208Z" transform="translate(-185.358 -238.001)" fill="#d8e6ee"/>
      <path id="Path_32" data-name="Path 32" d="M224,296h6.435v6.435H224Z" transform="translate(-194.923 -228.435)" fill="#d8e6ee"/>
      <path id="Path_33" data-name="Path 33" d="M224,328h6.435v6.435H224Z" transform="translate(-194.923 -247.566)" fill="#d8e6ee"/>
      <path id="Path_34" data-name="Path 34" d="M240,312h6.435v6.435H240Z" transform="translate(-204.488 -238.001)" fill="#d8e6ee"/>
      <path id="Path_35" data-name="Path 35" d="M256,296h6.435v6.435H256Z" transform="translate(-214.054 -228.435)" fill="#d8e6ee"/>
      <path id="Path_36" data-name="Path 36" d="M256,328h6.435v6.435H256Z" transform="translate(-214.054 -247.566)" fill="#d8e6ee"/>
      <path id="Path_37" data-name="Path 37" d="M272,312h6.435v6.435H272Z" transform="translate(-223.619 -238.001)" fill="#d8e6ee"/>
      <path id="Path_38" data-name="Path 38" d="M288,296h6.435v6.435H288Z" transform="translate(-233.184 -228.435)" fill="#d8e6ee"/>
      <path id="Path_39" data-name="Path 39" d="M288,328h6.435v6.435H288Z" transform="translate(-233.184 -247.566)" fill="#d8e6ee"/>
      <path id="Path_40" data-name="Path 40" d="M304,312h6.435v6.435H304Z" transform="translate(-242.749 -238.001)" fill="#d8e6ee"/>
      <path id="Path_41" data-name="Path 41" d="M320,296h6.435v6.435H320Z" transform="translate(-252.315 -228.435)" fill="#d8e6ee"/>
      <path id="Path_42" data-name="Path 42" d="M320,328h6.435v6.435H320Z" transform="translate(-252.315 -247.566)" fill="#d8e6ee"/>
      <path id="Path_43" data-name="Path 43" d="M354.144,302.435H352V296h.953Z" transform="translate(-271.445 -228.435)" fill="#d8e6ee"/>
      <path id="Path_44" data-name="Path 44" d="M356.528,334.435H352V328h3.338Z" transform="translate(-271.445 -247.566)" fill="#d8e6ee"/>
      <path id="Path_45" data-name="Path 45" d="M336,312h6.435v6.435H336Z" transform="translate(-261.88 -238.001)" fill="#d8e6ee"/>
      <path id="Path_46" data-name="Path 46" d="M190.435,144v6.435H184v-2.578l.716-3.857Z" transform="translate(-171.01 -137.565)" fill="#d8e6ee"/>
      <path id="Path_47" data-name="Path 47" d="M200,128h6.435v6.435H200Z" transform="translate(-180.575 -128)" fill="#d8e6ee"/>
      <path id="Path_48" data-name="Path 48" d="M200,160h6.435v6.435H200Z" transform="translate(-180.575 -147.131)" fill="#d8e6ee"/>
      <path id="Path_49" data-name="Path 49" d="M181.519,160v6.435H179.85L181.04,160Z" transform="translate(-168.529 -147.131)" fill="#d8e6ee"/>
      <path id="Path_50" data-name="Path 50" d="M216,144h6.435v6.435H216Z" transform="translate(-190.14 -137.565)" fill="#d8e6ee"/>
      <path id="Path_51" data-name="Path 51" d="M232,128h6.435v6.435H232Z" transform="translate(-199.706 -128)" fill="#d8e6ee"/>
      <path id="Path_52" data-name="Path 52" d="M232,160h6.435v6.435H232Z" transform="translate(-199.706 -147.131)" fill="#d8e6ee"/>
      <path id="Path_53" data-name="Path 53" d="M248,144h6.435v6.435H248Z" transform="translate(-209.271 -137.565)" fill="#d8e6ee"/>
      <path id="Path_54" data-name="Path 54" d="M264,128h6.435v6.435H264Z" transform="translate(-218.836 -128)" fill="#d8e6ee"/>
      <path id="Path_55" data-name="Path 55" d="M264,160h6.435v6.435H264Z" transform="translate(-218.836 -147.131)" fill="#d8e6ee"/>
      <path id="Path_56" data-name="Path 56" d="M280,144h6.435v6.435H280Z" transform="translate(-228.402 -137.565)" fill="#d8e6ee"/>
      <path id="Path_57" data-name="Path 57" d="M296,128h6.435v6.435H296Z" transform="translate(-237.967 -128)" fill="#d8e6ee"/>
      <path id="Path_58" data-name="Path 58" d="M296,160h6.435v6.435H296Z" transform="translate(-237.967 -147.131)" fill="#d8e6ee"/>
      <path id="Path_59" data-name="Path 59" d="M318.435,147.857v2.578H312V144h5.719Z" transform="translate(-247.532 -137.565)" fill="#d8e6ee"/>
      <path id="Path_60" data-name="Path 60" d="M328.772,166.435H326.5V160h1.082Z" transform="translate(-256.201 -147.131)" fill="#d8e6ee"/>
    </g>
  </g>
</svg>
