<svg xmlns="http://www.w3.org/2000/svg" width="22.411" height="22.411" viewBox="0 0 22.411 22.411">
  <g id="linkedin" opacity="0.5">
    <path id="Path_2" data-name="Path 2" d="M22.967,22.912h.006V14.692c0-4.021-.866-7.118-5.566-7.118a4.88,4.88,0,0,0-4.4,2.416h-.065V7.949H8.489V22.911H13.13V15.5c0-1.951.37-3.837,2.785-3.837,2.38,0,2.416,2.226,2.416,3.962v7.284Z" transform="translate(-0.562 -0.501)" fill="#e9e9e9"/>
    <path id="Path_3" data-name="Path 3" d="M.4,7.977H5.043V22.939H.4Z" transform="translate(-0.026 -0.528)" fill="#e9e9e9"/>
    <path id="Path_4" data-name="Path 4" d="M2.691,0A2.7,2.7,0,1,0,5.382,2.691,2.692,2.692,0,0,0,2.691,0Z" fill="#e9e9e9"/>
  </g>
</svg>
