<svg xmlns="http://www.w3.org/2000/svg" width="22.411" height="18.209" viewBox="0 0 22.411 18.209">
  <path id="twitter" d="M20.108,6.791a9.171,9.171,0,0,0,2.3-2.385h0a9.6,9.6,0,0,1-2.647.726,4.57,4.57,0,0,0,2.022-2.539A9.193,9.193,0,0,1,18.872,3.7a4.594,4.594,0,0,0-7.947,3.141,4.731,4.731,0,0,0,.106,1.048A13.008,13.008,0,0,1,1.56,3.087,4.594,4.594,0,0,0,2.972,9.227,4.541,4.541,0,0,1,.9,8.661v.05a4.616,4.616,0,0,0,3.681,4.515,4.569,4.569,0,0,1-1.2.151A4.055,4.055,0,0,1,2.5,13.3,4.64,4.64,0,0,0,6.8,16.5,9.235,9.235,0,0,1,1.1,18.46,8.69,8.69,0,0,1,0,18.4a12.938,12.938,0,0,0,7.048,2.062A12.987,12.987,0,0,0,20.108,6.791Z" transform="translate(0 -2.25)" fill="#e9e9e9" opacity="0.5"/>
</svg>
